<svg width="20" height="21" viewBox="0 0 20 21" fill="none" xmlns="http://www.w3.org/2000/svg">
<path d="M9.99935 18.8307C5.39697 18.8307 1.66602 15.0997 1.66602 10.4974C1.66602 5.89502 5.39697 2.16406 9.99935 2.16406C14.6017 2.16406 18.3327 5.89502 18.3327 10.4974C18.3327 15.0997 14.6017 18.8307 9.99935 18.8307ZM9.99935 17.1641C13.6813 17.1641 16.666 14.1793 16.666 10.4974C16.666 6.8155 13.6813 3.83073 9.99935 3.83073C6.31745 3.83073 3.33268 6.8155 3.33268 10.4974C3.33268 14.1793 6.31745 17.1641 9.99935 17.1641ZM10.8327 10.4974H14.166V12.1641H9.16602V6.33073H10.8327V10.4974Z" fill="#666666"/>
</svg>
