<svg width="18" height="16" viewBox="0 0 18 16" fill="none" xmlns="http://www.w3.org/2000/svg">
<path d="M0.667969 8.42448C0.667969 7.504 1.41416 6.75781 2.33464 6.75781C3.71535 6.75781 4.83464 7.8771 4.83464 9.25781V12.5911C4.83464 13.9719 3.71535 15.0911 2.33464 15.0911C1.41416 15.0911 0.667969 14.345 0.667969 13.4245V8.42448Z" stroke="#BBBBBB" stroke-width="1.25" stroke-linecap="round" stroke-linejoin="round"/>
<path d="M11.9016 4.51042L11.6796 5.22716C11.4978 5.81447 11.4069 6.10812 11.4768 6.34004C11.5334 6.52767 11.6575 6.68939 11.8268 6.7958C12.0359 6.92733 12.3524 6.92733 12.9852 6.92733H13.3219C15.4636 6.92733 16.5344 6.92733 17.0402 7.56129C17.098 7.63375 17.1495 7.71079 17.1939 7.7916C17.583 8.49866 17.1407 9.45115 16.2559 11.3561C15.444 13.1043 15.0381 13.9784 14.2843 14.4928C14.2113 14.5426 14.1363 14.5896 14.0595 14.6337C13.266 15.0885 12.2827 15.0885 10.3163 15.0885H9.88977C7.50737 15.0885 6.31617 15.0885 5.57605 14.3714C4.83594 13.6543 4.83594 12.5002 4.83594 10.1918V9.38049C4.83594 8.1674 4.83594 7.56086 5.05122 7.0057C5.26651 6.45055 5.67873 5.99408 6.50318 5.08114L9.9127 1.30568C9.99821 1.21099 10.041 1.16364 10.0787 1.13083C10.4306 0.824609 10.9736 0.859078 11.2813 1.20716C11.3142 1.24445 11.3503 1.2968 11.4223 1.40149C11.535 1.56525 11.5913 1.64713 11.6404 1.72825C12.08 2.45448 12.213 3.31718 12.0116 4.13617C11.9891 4.22764 11.9599 4.32195 11.9016 4.51042Z" stroke="#BBBBBB" stroke-width="1.25" stroke-linecap="round" stroke-linejoin="round"/>
</svg>
