<svg width="40" height="34" viewBox="0 0 40 34" fill="none" xmlns="http://www.w3.org/2000/svg">
<path d="M39.9409 23.9459L38.0307 8.02163C37.5168 3.73425 33.8725 0.5 29.5537 0.5H11.3091C6.99031 0.5 3.34599 3.73425 2.83214 8.02163L0.923921 23.9459C0.633572 26.368 1.39487 28.804 3.01473 30.6284C4.6326 32.4543 6.96087 33.5 9.4009 33.5H31.4639C33.9019 33.5 36.2302 32.4543 37.8501 30.6284C39.4679 28.8045 40.2312 26.3685 39.9409 23.9459ZM34.7081 27.8611C33.8411 28.838 32.6447 29.3752 31.3407 29.3752H9.52462C8.21855 29.3752 7.02174 28.838 6.15718 27.8611C5.29012 26.8843 4.9 25.6331 5.05465 24.3365L6.94142 8.59086C7.21231 6.33142 9.134 4.62475 11.4114 4.62475H29.4519C31.7288 4.62475 33.651 6.33092 33.9219 8.59086L35.8106 24.3365C35.9653 25.6331 35.5727 26.8843 34.7081 27.8611Z" fill="#004D5A"/>
<path d="M31.3945 19.0594C31.0942 18.5989 30.6327 18.2831 30.0949 18.1699C29.5561 18.0566 29.0074 18.1599 28.5469 18.4597C23.0537 22.0422 17.7077 22.0417 12.2041 18.4592C11.7436 18.1594 11.1933 18.0561 10.656 18.1704C10.1183 18.2841 9.65729 18.6004 9.35746 19.0609C9.05763 19.5214 8.95487 20.0711 9.06861 20.6089C9.18236 21.1467 9.49865 21.6077 9.95911 21.9075C13.3984 24.1465 16.9045 25.2814 20.3802 25.2814C23.8564 25.2814 27.3601 24.146 30.7944 21.9065C31.2548 21.6062 31.5706 21.1447 31.6839 20.6069C31.7976 20.0696 31.6948 19.5199 31.3945 19.0594Z" fill="#004D5A"/>
</svg>
