<svg width="34" height="26" viewBox="0 0 34 26" fill="none" xmlns="http://www.w3.org/2000/svg">
<path d="M32.9459 6.41709L30.9943 7.08959C31.2073 7.77854 31.4697 8.76233 31.4697 9.33605C31.4697 9.95915 31.0761 10.3363 30.3218 10.3363C29.551 10.3363 29.0921 10.1557 29.0921 9.13899V7.38442H27.0257V9.13899C27.0257 10.1557 26.5667 10.3363 25.7466 10.3363C24.9429 10.3363 24.4839 10.1557 24.4839 9.13899V7.38442H22.4011V9.12253C22.4011 10.1557 21.8433 10.3358 20.6465 10.3358C19.4168 10.3358 18.9902 10.0899 18.9902 8.74487V1.21875H16.8091V8.86061C16.8091 10.1068 16.3826 10.3363 15.1533 10.3363H15.1528C14.185 10.3363 13.6118 10.1402 13.6118 8.91V3.26815H11.5614V4.43354C7.67462 5.23574 6.28125 6.8596 6.28125 8.89354C6.28125 10.8277 7.55988 12.0749 9.42919 12.0749C10.8241 12.0749 11.528 11.3695 11.8403 10.4181C12.1192 12.1073 13.1014 13.0901 15.0186 13.0911L15.0216 13.0916C16.4814 13.0916 17.301 12.4356 17.6452 11.4353C18.0718 12.5503 19.0391 13.0916 20.5148 13.0916C21.8758 13.0916 22.7613 12.5997 23.1055 11.583C23.4497 12.6162 24.2699 13.0916 25.4343 13.0916C26.5987 13.0916 27.4024 12.5997 27.7301 11.5665C28.0743 12.5997 28.911 13.0916 30.2554 13.0916C32.2889 13.0916 33.5351 11.7631 33.5351 9.35251C33.5361 8.467 33.2901 7.25322 32.9459 6.41709ZM11.5619 8.84365C11.2346 9.10606 10.6105 9.30362 9.6921 9.30362C8.85547 9.30362 8.01985 9.07463 8.01985 8.51639C8.01985 7.90875 8.8884 7.30261 11.5614 6.8596V8.84365H11.5619Z" fill="#004D5A"/>
<path d="M12.6682 2.76029C13.3337 2.76029 13.8814 2.27737 13.8814 1.5989C13.8814 0.881504 13.3072 0.4375 12.6682 0.4375C12.0026 0.4375 11.4414 0.893976 11.4414 1.5989C11.4414 2.31679 12.0416 2.76029 12.6682 2.76029Z" fill="#004D5A"/>
<path d="M9.92597 2.76029C10.5915 2.76029 11.1392 2.27737 11.1392 1.5989C11.1392 0.881504 10.565 0.4375 9.92597 0.4375C9.26046 0.4375 8.69922 0.893976 8.69922 1.5989C8.69922 2.31679 9.29937 2.76029 9.92597 2.76029Z" fill="#004D5A"/>
<path d="M0.40625 24.8348L0.729026 23.0813C1.36011 23.5303 2.48259 23.9368 3.42198 23.9368C4.23566 23.9368 4.71259 23.6704 4.71259 23.2215C4.71259 22.0012 0.476592 23.1371 0.476592 20.1778C0.476592 18.6347 1.75323 17.625 3.8151 17.625C4.92311 17.625 5.94731 17.9338 6.67668 18.3125L6.32597 20.0236C5.63851 19.6589 4.76896 19.3222 3.92735 19.3222C3.15608 19.3222 2.67915 19.6165 2.67915 20.0376C2.67915 21.3142 6.91514 20.2202 6.91514 22.983C6.91514 24.4981 5.47039 25.5637 3.33817 25.5637C2.06153 25.5642 1.03733 25.1855 0.40625 24.8348Z" fill="#004D5A"/>
<path d="M14.0099 17.8807H16.2259V25.357H14.0099V24.1227C13.4067 25.0202 12.5511 25.5396 11.4431 25.5396C9.56335 25.5396 7.75391 24.2071 7.75391 21.6119C7.75391 19.0167 9.47904 17.6562 11.4431 17.6562C12.5372 17.6562 13.3928 18.0628 14.0099 18.8765V17.8807ZM14.0099 21.5839C13.6033 20.1951 12.7896 19.4941 11.8637 19.4941C10.8679 19.4941 10.0962 20.2375 10.0962 21.5839C10.0962 22.9165 10.8814 23.7022 11.8777 23.7022C12.846 23.7017 13.6452 22.8461 14.0099 21.5839Z" fill="#004D5A"/>
<path d="M17.8555 25.3531V15.4922H20.0715V25.3531H17.8555Z" fill="#004D5A"/>
<path d="M21.6992 25.3531V15.4922H23.9152V25.3531H21.6992Z" fill="#004D5A"/>
<path d="M31.4317 17.8807H33.6478V25.357H31.4317V24.1227C30.8286 25.0202 29.973 25.5396 28.865 25.5396C26.9852 25.5396 25.1758 24.2071 25.1758 21.6119C25.1758 19.0167 26.9009 17.6562 28.865 17.6562C29.959 17.6562 30.8146 18.0628 31.4317 18.8765V17.8807ZM31.4317 21.5839C31.0252 20.1951 30.2115 19.4941 29.2856 19.4941C28.2898 19.4941 27.518 20.2375 27.518 21.5839C27.518 22.9165 28.3033 23.7022 29.2995 23.7022C30.2674 23.7017 31.0671 22.8461 31.4317 21.5839Z" fill="#004D5A"/>
</svg>
