<svg width="96" height="48" viewBox="0 0 96 48" fill="none" xmlns="http://www.w3.org/2000/svg">
<g clip-path="url(#clip0_4346_28706)">
<path d="M95.7222 32.4125L93.4086 13.1256C92.7864 7.93285 88.3724 4.01562 83.1416 4.01562H61.0444C55.8136 4.01562 51.3996 7.93285 50.7772 13.1256L48.466 32.4125C48.1144 35.3461 49.0364 38.2965 50.9984 40.5063C52.958 42.7177 55.7778 43.9841 58.7332 43.9841H85.4552C88.408 43.9841 91.228 42.7177 93.19 40.5063C95.1494 38.2971 96.074 35.3467 95.7222 32.4125ZM89.3846 37.1545C88.3344 38.3377 86.8854 38.9885 85.306 38.9885H58.883C57.3012 38.9885 55.8516 38.3377 54.8044 37.1545C53.7542 35.9715 53.2818 34.4561 53.469 32.8857L55.7542 13.815C56.0824 11.0785 58.4098 9.01139 61.1682 9.01139H83.0184C85.776 9.01139 88.1042 11.0779 88.4322 13.815L90.7198 32.8857C90.9072 34.4561 90.4316 35.9715 89.3846 37.1545Z" fill="#BAF3E6"/>
<path d="M85.3686 26.491C85.0048 25.9334 84.446 25.5508 83.7946 25.4138C83.142 25.2766 82.4774 25.4016 81.9196 25.7648C75.2664 30.1038 68.7916 30.1032 62.1258 25.7642C61.568 25.401 60.9016 25.276 60.2508 25.4144C59.5994 25.552 59.0412 25.9352 58.678 26.4928C58.3148 27.0506 58.1904 27.7164 58.3282 28.3678C58.4658 29.0192 58.849 29.5774 59.4066 29.9406C63.5722 32.6524 67.8188 34.027 72.0284 34.027C76.2388 34.027 80.4822 32.6518 84.6418 29.9394C85.1994 29.5756 85.5818 29.0168 85.719 28.3654C85.8568 27.7146 85.7324 27.0488 85.3686 26.491Z" fill="#BAF3E6"/>
<path d="M40.0436 16.0773L37.6798 16.8918C37.9378 17.7262 38.2556 18.9178 38.2556 19.6127C38.2556 20.3673 37.7788 20.8242 36.8652 20.8242C35.9318 20.8242 35.3758 20.6054 35.3758 19.374V17.2489H32.8732V19.374C32.8732 20.6054 32.3172 20.8242 31.3238 20.8242C30.3504 20.8242 29.7946 20.6054 29.7946 19.374V17.2489H27.272V19.354C27.272 20.6054 26.5964 20.8235 25.1468 20.8235C23.6574 20.8235 23.1408 20.5256 23.1408 18.8966V9.78125H20.4991V19.0368C20.4991 20.5462 19.9825 20.8242 18.4937 20.8242H18.4931C17.3209 20.8242 16.6266 20.5867 16.6266 19.0966V12.2634H14.1432V13.6749C9.43567 14.6465 7.74805 16.6133 7.74805 19.0767C7.74805 21.4193 9.29669 22.9299 11.5607 22.9299C13.2502 22.9299 14.1027 22.0755 14.481 20.9232C14.8187 22.9692 16.0085 24.1595 18.3305 24.1608L18.3341 24.1613C20.1021 24.1613 21.0948 23.3667 21.5118 22.1552C22.0284 23.5057 23.2 24.1613 24.9874 24.1613C26.6356 24.1613 27.7082 23.5655 28.125 22.3341C28.542 23.5855 29.5354 24.1613 30.9456 24.1613C32.356 24.1613 33.3294 23.5655 33.7262 22.3142C34.1432 23.5655 35.1566 24.1613 36.785 24.1613C39.2478 24.1613 40.7572 22.5522 40.7572 19.6326C40.7584 18.5601 40.4604 17.09 40.0436 16.0773ZM14.1438 19.0163C13.7474 19.3341 12.9916 19.5734 11.8792 19.5734C10.8659 19.5734 9.85379 19.2961 9.85379 18.6199C9.85379 17.884 10.9058 17.1498 14.1432 16.6133V19.0163H14.1438Z" fill="#BAF3E6"/>
<path d="M15.4838 11.6492C16.2899 11.6492 16.9533 11.0643 16.9533 10.2426C16.9533 9.3737 16.2579 8.83594 15.4838 8.83594C14.6778 8.83594 13.998 9.3888 13.998 10.2426C13.998 11.1121 14.7249 11.6492 15.4838 11.6492Z" fill="#BAF3E6"/>
<path d="M12.1616 11.6492C12.9676 11.6492 13.6311 11.0643 13.6311 10.2426C13.6311 9.3737 12.9356 8.83594 12.1616 8.83594C11.3555 8.83594 10.6758 9.3888 10.6758 10.2426C10.6758 11.1121 11.4027 11.6492 12.1616 11.6492Z" fill="#BAF3E6"/>
<path d="M0.630859 38.3884L1.0218 36.2646C1.78615 36.8084 3.14565 37.3008 4.28343 37.3008C5.26893 37.3008 5.84657 36.9783 5.84657 36.4345C5.84657 34.9565 0.716055 36.3322 0.716055 32.748C0.716055 30.8792 2.26228 29.6562 4.75955 29.6562C6.10155 29.6562 7.34203 30.0302 8.22541 30.4888L7.80065 32.5615C6.96801 32.1197 5.91485 31.7118 4.89551 31.7118C3.96137 31.7118 3.38373 32.0682 3.38373 32.5782C3.38373 34.1244 8.51423 32.7995 8.51423 36.1457C8.51423 37.9807 6.76439 39.2712 4.18191 39.2712C2.63569 39.2718 1.39521 38.8132 0.630859 38.3884Z" fill="#BAF3E6"/>
<path d="M17.1102 29.9595H19.7942V39.0143H17.1102V37.5195C16.3797 38.6065 15.3435 39.2355 14.0015 39.2355C11.7247 39.2355 9.5332 37.6217 9.5332 34.4785C9.5332 31.3353 11.6226 29.6875 14.0015 29.6875C15.3265 29.6875 16.3628 30.1799 17.1102 31.1655V29.9595ZM17.1102 34.4447C16.6178 32.7625 15.6323 31.9135 14.5108 31.9135C13.3048 31.9135 12.37 32.8137 12.37 34.4447C12.37 36.0585 13.3211 37.0101 14.5278 37.0101C15.7006 37.0095 16.6685 35.9733 17.1102 34.4447Z" fill="#BAF3E6"/>
<path d="M21.7656 39.0135V27.0703H24.4496V39.0135H21.7656Z" fill="#BAF3E6"/>
<path d="M26.4199 39.0135V27.0703H29.1039V39.0135H26.4199Z" fill="#BAF3E6"/>
<path d="M38.2098 29.9595H40.8938V39.0143H38.2098V37.5195C37.4794 38.6065 36.443 39.2355 35.101 39.2355C32.8244 39.2355 30.6328 37.6217 30.6328 34.4785C30.6328 31.3353 32.7222 29.6875 35.101 29.6875C36.4262 29.6875 37.4624 30.1799 38.2098 31.1655V29.9595ZM38.2098 34.4447C37.7174 32.7625 36.732 31.9135 35.6104 31.9135C34.4044 31.9135 33.4696 32.8137 33.4696 34.4447C33.4696 36.0585 34.4208 37.0101 35.6274 37.0101C36.7996 37.0095 37.7682 35.9733 38.2098 34.4447Z" fill="#BAF3E6"/>
</g>
<defs>
<clipPath id="clip0_4346_28706">
<rect width="95.4" height="40" fill="white" transform="translate(0.599609 4)"/>
</clipPath>
</defs>
</svg>
