<svg width="79" height="34" viewBox="0 0 79 34" fill="none" xmlns="http://www.w3.org/2000/svg">
<path d="M32.9454 10.4178L30.9938 11.0903C31.2068 11.7792 31.4692 12.763 31.4692 13.3367C31.4692 13.9598 31.0756 14.337 30.3213 14.337C29.5505 14.337 29.0916 14.1564 29.0916 13.1397V11.3851H27.0252V13.1397C27.0252 14.1564 26.5662 14.337 25.7461 14.337C24.9424 14.337 24.4834 14.1564 24.4834 13.1397V11.3851H22.4006V13.1232C22.4006 14.1564 21.8428 14.3365 20.646 14.3365C19.4163 14.3365 18.9897 14.0905 18.9897 12.7455V5.21942H16.8086V12.8613C16.8086 14.1075 16.3821 14.337 15.1529 14.337H15.1524C14.1845 14.337 13.6113 14.1409 13.6113 12.9107V7.26883H11.5609V8.43421C7.67414 9.23641 6.28076 10.8603 6.28076 12.8942C6.28076 14.8284 7.55939 16.0756 9.4287 16.0756C10.8236 16.0756 11.5275 15.3702 11.8398 14.4188C12.1187 16.108 13.101 17.0908 15.0182 17.0918L15.0211 17.0923C16.4809 17.0923 17.3005 16.4363 17.6448 15.436C18.0713 16.551 19.0386 17.0923 20.5143 17.0923C21.8753 17.0923 22.7608 16.6004 23.105 15.5837C23.4492 16.6169 24.2694 17.0923 25.4338 17.0923C26.5982 17.0923 27.4019 16.6004 27.7296 15.5672C28.0739 16.6004 28.9105 17.0923 30.255 17.0923C32.2884 17.0923 33.5346 15.7638 33.5346 13.3532C33.5356 12.4677 33.2896 11.2539 32.9454 10.4178ZM11.5614 12.8443C11.2341 13.1067 10.61 13.3043 9.69161 13.3043C8.85499 13.3043 8.01936 13.0753 8.01936 12.5171C8.01936 11.9094 8.88791 11.3033 11.5609 10.8603V12.8443H11.5614Z" fill="#004D5A"/>
<path d="M12.6682 6.75974C13.3337 6.75974 13.8814 6.27683 13.8814 5.59835C13.8814 4.88096 13.3072 4.43695 12.6682 4.43695C12.0026 4.43695 11.4414 4.89343 11.4414 5.59835C11.4414 6.31624 12.0416 6.75974 12.6682 6.75974Z" fill="#004D5A"/>
<path d="M9.92548 6.75974C10.591 6.75974 11.1388 6.27683 11.1388 5.59835C11.1388 4.88096 10.5645 4.43695 9.92548 4.43695C9.25997 4.43695 8.69873 4.89343 8.69873 5.59835C8.69873 6.31624 9.29888 6.75974 9.92548 6.75974Z" fill="#004D5A"/>
<path d="M0.404785 28.8341L0.727561 27.0805C1.35864 27.5295 2.48113 27.9361 3.42052 27.9361C4.23419 27.9361 4.71112 27.6697 4.71112 27.2207C4.71112 26.0005 0.475127 27.1364 0.475127 24.177C0.475127 22.634 1.75176 21.6243 3.81364 21.6243C4.92165 21.6243 5.94585 21.9331 6.67521 22.3117L6.3245 24.0229C5.63704 23.6582 4.7675 23.3215 3.92588 23.3215C3.15461 23.3215 2.67768 23.6158 2.67768 24.0369C2.67768 25.3135 6.91368 24.2194 6.91368 26.9823C6.91368 28.4974 5.46892 29.563 3.33671 29.563C2.06007 29.5635 1.03587 29.1848 0.404785 28.8341Z" fill="#004D5A"/>
<path d="M14.0104 21.8771H16.2264V29.3534H14.0104V28.1191C13.4072 29.0166 12.5516 29.536 11.4436 29.536C9.56383 29.536 7.75439 28.2035 7.75439 25.6083C7.75439 23.0131 9.47952 21.6526 11.4436 21.6526C12.5377 21.6526 13.3932 22.0592 14.0104 22.8729V21.8771ZM14.0104 25.5803C13.6038 24.1915 12.7901 23.4905 11.8642 23.4905C10.8684 23.4905 10.0966 24.2339 10.0966 25.5803C10.0966 26.9129 10.8819 27.6986 11.8781 27.6986C12.8465 27.6981 13.6457 26.8425 14.0104 25.5803Z" fill="#004D5A"/>
<path d="M17.8535 29.3531V19.4922H20.0695V29.3531H17.8535Z" fill="#004D5A"/>
<path d="M21.6968 29.3531V19.4922H23.9128V29.3531H21.6968Z" fill="#004D5A"/>
<path d="M31.4313 21.8771H33.6473V29.3534H31.4313V28.1191C30.8281 29.0166 29.9725 29.536 28.8645 29.536C26.9847 29.536 25.1753 28.2035 25.1753 25.6083C25.1753 23.0131 26.9004 21.6526 28.8645 21.6526C29.9586 21.6526 30.8141 22.0592 31.4313 22.8729V21.8771ZM31.4313 25.5803C31.0247 24.1915 30.211 23.4905 29.2851 23.4905C28.2893 23.4905 27.5175 24.2339 27.5175 25.5803C27.5175 26.9129 28.3028 27.6986 29.299 27.6986C30.2669 27.6981 31.0666 26.8425 31.4313 25.5803Z" fill="#004D5A"/>
<path d="M78.9394 23.9459L77.0292 8.02163C76.5153 3.73425 72.871 0.5 68.5522 0.5H50.3077C45.9888 0.5 42.3445 3.73425 41.8307 8.02163L39.9225 23.9459C39.6321 26.368 40.3934 28.804 42.0133 30.6284C43.6311 32.4543 45.9594 33.5 48.3994 33.5H70.4624C72.9005 33.5 75.2287 32.4543 76.8486 30.6284C78.4665 28.8045 79.2297 26.3685 78.9394 23.9459ZM73.7066 27.8611C72.8396 28.838 71.6433 29.3752 70.3392 29.3752H48.5232C47.2171 29.3752 46.0203 28.838 45.1557 27.8611C44.2887 26.8843 43.8985 25.6331 44.0532 24.3365L45.94 8.59086C46.2108 6.33142 48.1325 4.62475 50.4099 4.62475H68.4504C70.7273 4.62475 72.6495 6.33092 72.9204 8.59086L74.8092 24.3365C74.9638 25.6331 74.5712 26.8843 73.7066 27.8611Z" fill="#004D5A"/>
<path d="M70.3921 19.0585C70.0917 18.598 69.6303 18.2822 69.0925 18.169C68.5537 18.0557 68.0049 18.159 67.5445 18.4588C62.0513 22.0413 56.7053 22.0408 51.2016 18.4583C50.7412 18.1585 50.1909 18.0552 49.6536 18.1695C49.1158 18.2832 48.6548 18.5995 48.355 19.06C48.0552 19.5204 47.9524 20.0702 48.0662 20.608C48.1799 21.1458 48.4962 21.6068 48.9567 21.9066C52.396 24.1456 55.9021 25.2805 59.3778 25.2805C62.854 25.2805 66.3576 24.1451 69.7919 21.9056C70.2524 21.6053 70.5682 21.1438 70.6814 20.606C70.7952 20.0687 70.6924 19.5189 70.3921 19.0585Z" fill="#004D5A"/>
</svg>
