<svg width="18" height="18" viewBox="0 0 18 18" fill="none" xmlns="http://www.w3.org/2000/svg">
<path d="M4.08169 14.8281C2.99827 14.7216 2.18664 14.3961 1.64233 13.8518C0.666016 12.8755 0.666016 11.3042 0.666016 8.16146V7.74479C0.666016 4.6021 0.666016 3.03075 1.64233 2.05444C2.61864 1.07812 4.18999 1.07812 7.33268 1.07812H10.666C13.8087 1.07812 15.3801 1.07812 16.3564 2.05444C17.3327 3.03075 17.3327 4.6021 17.3327 7.74479V8.16146C17.3327 11.3042 17.3327 12.8755 16.3564 13.8518C15.3801 14.8281 13.8087 14.8281 10.666 14.8281C10.199 14.8385 9.82696 14.8741 9.46151 14.9573C8.46287 15.1872 7.53812 15.6982 6.62424 16.1439C5.32209 16.7788 4.67101 17.0963 4.26243 16.7991C3.48076 16.2169 4.2448 14.413 4.41602 13.5781" stroke="#999999" stroke-width="1.25" stroke-linecap="round"/>
</svg>
