<svg width="18" height="14" viewBox="0 0 18 14" fill="none" xmlns="http://www.w3.org/2000/svg">
<path d="M3.00686 4.87025L4.64461 3.22676C5.82464 2.0426 6.28719 1.40558 6.92615 1.63078C7.72294 1.91158 7.46064 3.68337 7.46064 4.28153C8.69944 4.28153 9.98736 4.17143 11.2085 4.40083C15.2395 5.15814 16.5 8.43204 16.5 12.0026C15.3591 11.1944 14.2193 10.3335 12.8481 9.9589C11.1364 9.49134 9.22468 9.71446 7.46064 9.71446C7.46064 10.3126 7.72294 12.0844 6.92615 12.3652C6.20209 12.6203 5.82464 11.9534 4.64461 10.7692L3.00686 9.12573C2.00229 8.11763 1.5 7.61358 1.5 6.99799C1.5 6.3824 2.00229 5.87835 3.00686 4.87025Z" stroke="#666666" stroke-width="1.5" stroke-linecap="round" stroke-linejoin="round"/>
</svg>
