<svg width="18" height="18" viewBox="0 0 18 18" fill="none" xmlns="http://www.w3.org/2000/svg">
<path d="M8.99984 17.3332C4.39746 17.3332 0.666504 13.6022 0.666504 8.99984C0.666504 4.39746 4.39746 0.666504 8.99984 0.666504C13.6022 0.666504 17.3332 4.39746 17.3332 8.99984C17.3332 13.6022 13.6022 17.3332 8.99984 17.3332ZM8.99984 15.6665C12.6818 15.6665 15.6665 12.6818 15.6665 8.99984C15.6665 5.31794 12.6818 2.33317 8.99984 2.33317C5.31794 2.33317 2.33317 5.31794 2.33317 8.99984C2.33317 12.6818 5.31794 15.6665 8.99984 15.6665ZM9.83317 8.99984H13.1665V10.6665H8.1665V4.83317H9.83317V8.99984Z" fill="#999999"/>
</svg>
