<svg width="18" height="18" viewBox="0 0 18 18" fill="none" xmlns="http://www.w3.org/2000/svg">
<path d="M4.08218 14.8306C2.99875 14.724 2.18713 14.3986 1.64281 13.8543C0.666504 12.8779 0.666504 11.3066 0.666504 8.1639V7.74723C0.666504 4.60454 0.666504 3.03319 1.64281 2.05688C2.61913 1.08057 4.19047 1.08057 7.33317 1.08057H10.6665C13.8092 1.08057 15.3806 1.08057 16.3569 2.05688C17.3332 3.03319 17.3332 4.60454 17.3332 7.74723V8.1639C17.3332 11.3066 17.3332 12.8779 16.3569 13.8543C15.3806 14.8306 13.8092 14.8306 10.6665 14.8306C10.1994 14.841 9.82745 14.8765 9.462 14.9598C8.46336 15.1897 7.53861 15.7007 6.62473 16.1463C5.32258 16.7812 4.6715 17.0987 4.26292 16.8015C3.48125 16.2193 4.24529 14.4155 4.4165 13.5806" stroke="#999999" stroke-width="1.25" stroke-linecap="round"/>
</svg>
