<svg width="24" height="24" viewBox="0 0 24 24" fill="none" xmlns="http://www.w3.org/2000/svg">
<path d="M21.544 11.0474C21.848 11.4737 22 11.6869 22 12.0024C22 12.318 21.848 12.5311 21.544 12.9575C20.1779 14.873 16.6892 19.0024 12 19.0024C7.31078 19.0024 3.8221 14.873 2.45604 12.9575C2.15201 12.5311 2 12.318 2 12.0024C2 11.6869 2.15201 11.4737 2.45604 11.0474C3.8221 9.13188 7.31078 5.00244 12 5.00244C16.6892 5.00244 20.1779 9.13188 21.544 11.0474Z" stroke="#999999" stroke-width="1.25"/>
<path d="M14.9995 12.0024C14.9995 10.3456 13.6564 9.00244 11.9995 9.00244C10.3427 9.00244 8.99951 10.3456 8.99951 12.0024C8.99951 13.6593 10.3427 15.0024 11.9995 15.0024C13.6564 15.0024 14.9995 13.6593 14.9995 12.0024Z" stroke="#999999" stroke-width="1.25"/>
</svg>
