<svg width="20" height="20" viewBox="0 0 20 20" fill="none" xmlns="http://www.w3.org/2000/svg">
<path d="M3.3335 14.9868V8.09237C3.3335 5.06457 3.3335 3.55067 4.30981 2.61005C5.28612 1.66943 6.85747 1.66943 10.0002 1.66943C13.1429 1.66943 14.7142 1.66943 15.6905 2.61005C16.6668 3.55067 16.6668 5.06457 16.6668 8.09237V14.9868C16.6668 16.9083 16.6668 17.8691 16.0228 18.213C14.7756 18.879 12.4362 16.6571 11.3252 15.9881C10.6808 15.6001 10.3587 15.4061 10.0002 15.4061C9.64167 15.4061 9.3195 15.6001 8.67517 15.9881C7.56416 16.6571 5.22472 18.879 3.97754 18.213C3.3335 17.8691 3.3335 16.9083 3.3335 14.9868Z" stroke="#999999" stroke-width="1.25" stroke-linecap="round" stroke-linejoin="round"/>
<path d="M3.3335 5.83594H16.6668" stroke="#999999" stroke-width="1.25"/>
</svg>
