<svg width="20" height="20" viewBox="0 0 20 20" fill="none" xmlns="http://www.w3.org/2000/svg">
<path d="M16.9939 6.6929L15.5381 5.42868C14.4892 4.51778 14.0781 4.02777 13.5101 4.201C12.8018 4.417 13.035 5.77991 13.035 6.24003C11.9338 6.24003 10.789 6.15534 9.70359 6.33181C6.12044 6.91435 5 9.4637 5 12.2103C6.01415 11.5886 7.02728 10.8954 8.24617 10.6072C9.76768 10.2476 11.467 10.4192 13.035 10.4192C13.035 10.8793 12.8018 12.2423 13.5101 12.4582C14.1537 12.6545 14.4892 12.1415 15.5381 11.2306L16.9939 9.96634C17.8869 9.19089 18.3333 8.80316 18.3333 8.32962C18.3333 7.85609 17.8869 7.46836 16.9939 6.6929Z" stroke="#999999" stroke-width="1.25" stroke-linecap="round" stroke-linejoin="round"/>
<path d="M8.80616 2.5C5.58929 2.50578 3.90478 2.5846 2.82826 3.65894C1.6665 4.81835 1.6665 6.68438 1.6665 10.4164C1.6665 14.1485 1.6665 16.0145 2.82826 17.1739C3.99001 18.3333 5.85982 18.3333 9.59945 18.3333C13.3391 18.3333 15.2089 18.3333 16.3706 17.1739C17.1795 16.3667 17.4252 15.2169 17.4998 13.3333" stroke="#999999" stroke-width="1.25" stroke-linecap="round" stroke-linejoin="round"/>
</svg>
