<svg width="18" height="18" viewBox="0 0 18 18" fill="none" xmlns="http://www.w3.org/2000/svg">
<path fill-rule="evenodd" clip-rule="evenodd" d="M8.99935 17.9635C4.0518 17.9635 0.0410156 13.9528 0.0410156 9.00521C0.0410156 4.05766 4.0518 0.046875 8.99935 0.046875C13.9469 0.046875 17.9577 4.05766 17.9577 9.00521C17.9577 13.9528 13.9469 17.9635 8.99935 17.9635ZM12.7327 6.81984C13.1365 6.59901 13.2848 6.09266 13.064 5.68886C12.8431 5.28506 12.3368 5.13673 11.933 5.35756C10.4091 6.19093 9.149 7.79925 8.30177 9.09658C7.98866 9.57604 7.72121 10.03 7.50717 10.4145C7.30755 10.2208 7.10983 10.0527 6.933 9.91287C6.7016 9.72992 6.49337 9.58563 6.34154 9.48618L6.07901 9.32315C5.67922 9.09514 5.17029 9.2344 4.94228 9.63418C4.71432 10.0339 4.85346 10.5427 5.25303 10.7708L5.42828 10.8804C5.54729 10.9583 5.71405 11.0738 5.89932 11.2203C6.28062 11.5217 6.69207 11.9169 6.951 12.3498C7.1099 12.6155 7.40299 12.7712 7.71208 12.7541C8.0211 12.737 8.2953 12.5499 8.42406 12.2685L8.50591 12.0973C8.56234 11.9819 8.64685 11.8133 8.75684 11.6055C8.97726 11.1891 9.29775 10.6196 9.69722 10.0079C10.5166 8.75315 11.5899 7.44481 12.7327 6.81984Z" fill="#00AF6C"/>
</svg>
