<svg width="42" height="42" viewBox="0 0 42 42" fill="none" xmlns="http://www.w3.org/2000/svg">
<path d="M22.125 21.75V20.625C22.125 19.5717 22.125 19.045 21.8722 18.6666C21.7628 18.5029 21.6221 18.3622 21.4584 18.2528C21.1278 18.032 20.6841 18.004 19.875 18.0005C19.7579 18 19.6332 18 19.5 18C18.4467 18 17.92 18 17.5416 18.2528C17.3779 18.3622 17.2372 18.5029 17.1278 18.6666C16.875 19.045 16.875 19.5717 16.875 20.625V25.125C16.875 26.1783 16.875 26.705 17.1278 27.0834C17.2372 27.2471 17.3779 27.3878 17.5416 27.4972C17.92 27.75 18.4467 27.75 19.5 27.75C20.5533 27.75 21.08 27.75 21.4584 27.4972C21.6221 27.3878 21.7628 27.2471 21.8722 27.0834C22.0127 26.8731 22.0751 26.6169 22.1029 26.25" stroke="#004D5A" stroke-width="1.5" stroke-linecap="round"/>
<path d="M19.875 20.25V21.375C19.875 22.4283 19.875 22.955 20.1278 23.3334C20.2372 23.4971 20.3779 23.6378 20.5416 23.7472C20.8722 23.968 21.3159 23.996 22.125 23.9995C22.2421 24 22.3668 24 22.5 24C23.5533 24 24.08 24 24.4584 23.7472C24.6221 23.6378 24.7628 23.4971 24.8722 23.3334C25.125 22.955 25.125 22.4283 25.125 21.375V16.875C25.125 15.8217 25.125 15.295 24.8722 14.9166C24.7628 14.7529 24.6221 14.6122 24.4584 14.5028C24.08 14.25 23.5533 14.25 22.5 14.25C21.4467 14.25 20.92 14.25 20.5416 14.5028C20.3779 14.6122 20.2372 14.7529 20.1278 14.9166C19.9873 15.1269 19.9249 15.3831 19.8972 15.75" stroke="#004D5A" stroke-width="1.5" stroke-linecap="round"/>
</svg>
