<svg width="20" height="20" viewBox="0 0 20 20" fill="none" xmlns="http://www.w3.org/2000/svg">
<path d="M3.33398 14.9866V8.09213C3.33398 5.06433 3.33398 3.55043 4.3103 2.60981C5.28661 1.66919 6.85795 1.66919 10.0007 1.66919C13.1433 1.66919 14.7147 1.66919 15.691 2.60981C16.6673 3.55043 16.6673 5.06433 16.6673 8.09213V14.9866C16.6673 16.9081 16.6673 17.8688 16.0233 18.2128C14.7761 18.8787 12.4367 16.6569 11.3256 15.9879C10.6813 15.5999 10.3591 15.4059 10.0007 15.4059C9.64216 15.4059 9.31999 15.5999 8.67565 15.9879C7.56465 16.6569 5.22521 18.8787 3.97802 18.2128C3.33398 17.8688 3.33398 16.9081 3.33398 14.9866Z" stroke="#999999" stroke-width="1.25" stroke-linecap="round" stroke-linejoin="round"/>
<path d="M3.33398 5.83594H16.6673" stroke="#999999" stroke-width="1.25"/>
</svg>
