<svg width="18" height="14" viewBox="0 0 18 14" fill="none" xmlns="http://www.w3.org/2000/svg">
<path d="M15.5925 4.65437L13.7909 2.84653C12.4929 1.54395 11.9841 0.843233 11.2812 1.09095C10.4048 1.39983 10.6933 3.3488 10.6933 4.00677C9.33062 4.00677 7.9139 3.88567 6.5707 4.13801C2.13654 4.97105 0.75 8.57234 0.75 12.5C2.005 11.611 3.25876 10.6639 4.76714 10.2519C6.65001 9.73757 8.75286 9.983 10.6933 9.983C10.6933 10.6409 10.4048 12.59 11.2812 12.8988C12.0777 13.1795 12.4929 12.4458 13.7909 11.1432L15.5925 9.3354C16.6975 8.22649 17.25 7.67204 17.25 6.99489C17.25 6.31773 16.6975 5.76328 15.5925 4.65437Z" stroke="#EEFCF9" stroke-width="1.5" stroke-linecap="round" stroke-linejoin="round"/>
</svg>
