<svg width="20" height="20" viewBox="0 0 20 20" fill="none" xmlns="http://www.w3.org/2000/svg">
<path d="M17.9531 9.20416C18.2065 9.55943 18.3332 9.73706 18.3332 10C18.3332 10.263 18.2065 10.4406 17.9531 10.7959C16.8148 12.3921 13.9075 15.8333 9.99984 15.8333C6.09215 15.8333 3.18492 12.3921 2.04654 10.7959C1.79318 10.4406 1.6665 10.263 1.6665 10C1.6665 9.73706 1.79318 9.55943 2.04654 9.20416C3.18492 7.60787 6.09215 4.16667 9.99984 4.16667C13.9075 4.16667 16.8148 7.60787 17.9531 9.20416Z" stroke="#666666" stroke-width="1.25"/>
<path d="M12.5 10C12.5 8.61929 11.3807 7.5 10 7.5C8.61929 7.5 7.5 8.61929 7.5 10C7.5 11.3807 8.61929 12.5 10 12.5C11.3807 12.5 12.5 11.3807 12.5 10Z" stroke="#666666" stroke-width="1.25"/>
</svg>
