<svg width="20" height="16" viewBox="0 0 20 16" fill="none" xmlns="http://www.w3.org/2000/svg">
<path d="M9.47433 13.3058C12.4874 10.0819 15.3962 7.89492 19.0501 4.79776C20.1437 3.87072 20.3126 2.24578 19.4547 1.09453C18.5429 -0.129017 16.8103 -0.373581 15.6376 0.599125C12.2907 3.37521 9.68684 6.04818 7.21679 8.90509C7.08718 9.05501 7.02237 9.12996 6.95511 9.17217C6.78453 9.27919 6.57138 9.28033 6.3997 9.17512C6.33199 9.13363 6.26707 9.06012 6.13722 8.9131L4.82103 7.42286C3.6201 6.06314 1.46608 6.21366 0.463387 7.72737C-0.23829 8.78665 -0.134309 10.1905 0.715667 11.1334L2.7796 13.4229C4.32334 15.1353 5.09521 15.9916 6.02185 15.9999C6.94849 16.0083 7.79043 15.1075 9.47433 13.3058Z" fill="green"/>
</svg>
