<svg width="22" height="22" viewBox="0 0 22 22" fill="none" xmlns="http://www.w3.org/2000/svg">
<path d="M17.5925 8.65437L15.7909 6.84653C14.4929 5.54395 13.9841 4.84323 13.2812 5.09095C12.4048 5.39983 12.6933 7.3488 12.6933 8.00677C11.3306 8.00677 9.9139 7.88567 8.5707 8.13801C4.13654 8.97105 2.75 12.5723 2.75 16.5C4.005 15.611 5.25876 14.6639 6.76714 14.2519C8.65001 13.7376 10.7529 13.983 12.6933 13.983C12.6933 14.6409 12.4048 16.59 13.2812 16.8988C14.0777 17.1795 14.4929 16.4458 15.7909 15.1432L17.5925 13.3354C18.6975 12.2265 19.25 11.672 19.25 10.9949C19.25 10.3177 18.6975 9.76328 17.5925 8.65437Z" stroke="#EEFCF9" stroke-width="1.5" stroke-linecap="round" stroke-linejoin="round"/>
</svg>
