<svg width="42" height="42" viewBox="0 0 42 42" fill="none" xmlns="http://www.w3.org/2000/svg">
<path d="M19.5 21.9217C19.6062 22.0957 19.7323 22.2603 19.8781 22.4121C20.7838 23.3547 22.1641 23.502 23.2182 22.8541C23.4135 22.7341 23.5976 22.5868 23.7654 22.4121L26.1949 19.8836C27.2684 18.7664 27.2684 16.9551 26.1949 15.8379C25.1215 14.7207 23.3811 14.7207 22.3077 15.8379L21.7725 16.3948" stroke="black" stroke-width="1.5" stroke-linecap="round"/>
<path d="M20.2277 25.605L19.6924 26.1621C18.6189 27.2793 16.8785 27.2793 15.8051 26.1621C14.7316 25.0449 14.7316 23.2336 15.8051 22.1164L18.2347 19.5879C19.3081 18.4707 21.0485 18.4707 22.122 19.5879C22.2678 19.7397 22.3938 19.9042 22.5 20.0781" stroke="black" stroke-width="1.5" stroke-linecap="round"/>
</svg>
