<svg width="22" height="30" viewBox="0 0 22 30" fill="none" xmlns="http://www.w3.org/2000/svg">
<path d="M9.1665 16.1265C9.29633 16.3391 9.45038 16.5403 9.62865 16.7259C10.7355 17.8779 12.4227 18.058 13.711 17.2661C13.9497 17.1194 14.1747 16.9393 14.3798 16.7259L17.3492 13.6354C18.6612 12.27 18.6612 10.0562 17.3492 8.69071C16.0372 7.32526 13.9101 7.32527 12.5981 8.69071L11.944 9.37143" stroke="#004D5A" stroke-width="1.5" stroke-linecap="round"/>
<path d="M10.0559 20.6283L9.40165 21.3092C8.08966 22.6747 5.96249 22.6747 4.6505 21.3093C3.33851 19.9438 3.33851 17.73 4.6505 16.3645L7.61997 13.2741C8.93196 11.9086 11.0591 11.9086 12.3711 13.2741C12.5493 13.4596 12.7034 13.6607 12.8332 13.8733" stroke="#004D5A" stroke-width="1.5" stroke-linecap="round"/>
</svg>
