<svg width="18" height="22" viewBox="0 0 18 22" fill="none" xmlns="http://www.w3.org/2000/svg">
<path d="M13.4854 0.397308C12.348 0.249975 10.8393 0.249986 9.00001 0.25C7.16068 0.249986 5.652 0.249975 4.51458 0.397308C3.34712 0.548529 2.40051 0.866725 1.65121 1.58863C0.897998 2.31431 0.562431 3.23743 0.40365 4.37525C0.383563 4.51919 0.366102 4.66833 0.350923 4.8228C0.331542 5.02004 0.321852 5.11866 0.381387 5.18433C0.440921 5.25 0.541986 5.25 0.744116 5.25H17.2559C17.458 5.25 17.5591 5.25 17.6186 5.18433C17.6782 5.11866 17.6685 5.02004 17.6491 4.8228C17.6339 4.66833 17.6164 4.51919 17.5964 4.37525C17.4376 3.23743 17.102 2.31431 16.3488 1.58863C15.5995 0.866725 14.6529 0.548529 13.4854 0.397308Z" fill="black"/>
<path d="M17.7458 7.1438C17.7441 6.95852 17.7433 6.86588 17.6848 6.80794C17.6263 6.75 17.5333 6.75 17.3472 6.75H0.652843C0.466737 6.75 0.373684 6.75 0.315217 6.80794C0.25675 6.86588 0.255913 6.95852 0.254239 7.1438C0.249995 7.61366 0.25 8.115 0.250006 8.64943L0.250001 17.0458C0.249964 18.1433 0.249933 19.0553 0.35533 19.7405C0.464381 20.4495 0.718568 21.1395 1.41958 21.5139C2.04476 21.8477 2.7324 21.7798 3.31544 21.6028C3.90514 21.4238 4.50454 21.0989 5.05335 20.7521C5.60739 20.402 6.15065 20.0029 6.623 19.6538C7.08581 19.3117 7.51308 18.9958 7.7969 18.8249C8.19647 18.5843 8.44875 18.4335 8.65326 18.3371C8.84202 18.2482 8.93371 18.234 9.00001 18.234C9.06631 18.234 9.15799 18.2482 9.34675 18.3371C9.55126 18.4335 9.80355 18.5843 10.2031 18.8249C10.4869 18.9958 10.9142 19.3117 11.377 19.6538C11.8494 20.0029 12.3926 20.402 12.9467 20.7521C13.4955 21.0989 14.0949 21.4238 14.6846 21.6028C15.2676 21.7798 15.9553 21.8477 16.5804 21.5139C17.2814 21.1395 17.5356 20.4495 17.6447 19.7405C17.7501 19.0553 17.75 18.1434 17.75 17.0458V8.64945C17.75 8.11501 17.75 7.61366 17.7458 7.1438Z" fill="black"/>
</svg>
