<svg width="42" height="42" viewBox="0 0 42 42" fill="none" xmlns="http://www.w3.org/2000/svg">
<path d="M15 25.4856V19.2806C15 16.5556 15 15.1931 15.8787 14.3466C16.7574 13.5 18.1716 13.5 21 13.5C23.8284 13.5 25.2426 13.5 26.1213 14.3466C27 15.1931 27 16.5556 27 19.2806V25.4856C27 27.215 27 28.0797 26.4204 28.3892C25.2979 28.9886 23.1924 26.9889 22.1925 26.3868C21.6126 26.0376 21.3226 25.863 21 25.863C20.6774 25.863 20.3874 26.0376 19.8075 26.3868C18.8076 26.9889 16.7021 28.9886 15.5796 28.3892C15 28.0797 15 27.215 15 25.4856Z" stroke="#004D5A" stroke-width="1.5" stroke-linecap="round" stroke-linejoin="round"/>
<path d="M15 17.25H27" stroke="#004D5A" stroke-width="1.5"/>
</svg>
