<svg width="20" height="20" viewBox="0 0 20 20" fill="none" xmlns="http://www.w3.org/2000/svg">
<path d="M16.9929 6.69315L15.5371 5.42892C14.4882 4.51803 14.0771 4.02801 13.5091 4.20124C12.8009 4.41724 13.034 5.78016 13.034 6.24028C11.9329 6.24028 10.788 6.15559 9.70262 6.33205C6.11946 6.91459 4.99902 9.46394 4.99902 12.2105C6.01317 11.5889 7.02631 10.8956 8.24519 10.6075C9.76671 10.2478 11.466 10.4195 13.034 10.4195C13.034 10.8795 12.8009 12.2425 13.5091 12.4585C14.1527 12.6547 14.4882 12.1417 15.5371 11.2308L16.9929 9.96659C17.8859 9.19113 18.3324 8.8034 18.3324 8.32987C18.3324 7.85633 17.8859 7.4686 16.9929 6.69315Z" stroke="#999999" stroke-width="1.25" stroke-linecap="round" stroke-linejoin="round"/>
<path d="M8.80567 2.5C5.58881 2.50578 3.9043 2.5846 2.82777 3.65894C1.66602 4.81835 1.66602 6.68438 1.66602 10.4164C1.66601 14.1485 1.66601 16.0145 2.82777 17.1739C3.98952 18.3333 5.85933 18.3333 9.59896 18.3333C13.3386 18.3333 15.2084 18.3333 16.3702 17.1739C17.179 16.3667 17.4247 15.2169 17.4993 13.3333" stroke="#999999" stroke-width="1.25" stroke-linecap="round" stroke-linejoin="round"/>
</svg>
