<svg width="64" height="42" viewBox="0 0 64 42" fill="none" xmlns="http://www.w3.org/2000/svg">
<path d="M26.3938 19.0809L24.9199 17.6017C23.8578 16.536 23.4415 15.9627 22.8665 16.1654C22.1494 16.4181 22.3854 18.0127 22.3854 18.551C21.2705 18.551 20.1114 18.4519 19.0124 18.6584C15.3844 19.34 14.25 22.2865 14.25 25.5C15.2768 24.7726 16.3026 23.9978 17.5367 23.6607C19.0773 23.2399 20.7978 23.4407 22.3854 23.4407C22.3854 23.979 22.1494 25.5737 22.8665 25.8263C23.5181 26.056 23.8578 25.4557 24.9199 24.39L26.3938 22.9108C27.2979 22.0035 27.75 21.5499 27.75 20.9958C27.75 20.4418 27.2979 19.9882 26.3938 19.0809Z" stroke="#004D5A" stroke-width="1.5" stroke-linecap="round" stroke-linejoin="round"/>
<path d="M35.486 24.126C32.728 24.126 32.392 22.558 32.49 20.892L33.54 20.836C33.47 22.348 34.296 22.6 35.598 22.6C37.026 22.6 37.712 22.166 37.712 21.382C37.712 20.43 36.746 19.17 34.982 17.588L35.878 16.496C37.292 17.714 38.832 19.436 38.832 21.284C38.832 23.076 37.768 24.126 35.486 24.126ZM43.2404 22.768C43.2404 25.022 41.7984 26.954 39.3484 26.954C38.8304 26.954 38.3544 26.87 38.1444 26.8L38.2704 25.386C38.5924 25.428 38.9004 25.442 39.2224 25.442C41.2244 25.442 42.0784 24.07 42.0784 22.95C42.0784 21.928 41.7844 20.682 41.4204 19.002L42.5824 18.694C42.9604 20.206 43.2404 21.662 43.2404 22.768Z" fill="#004D5A"/>
</svg>
