<svg width="22" height="18" viewBox="0 0 22 18" fill="none" xmlns="http://www.w3.org/2000/svg">
<path d="M10.4743 14.3058C13.4874 11.0819 16.3962 8.89492 20.0501 5.79776C21.1437 4.87072 21.3126 3.24578 20.4547 2.09453C19.5429 0.870983 17.8103 0.626419 16.6376 1.59913C13.2907 4.37521 10.6868 7.04818 8.21679 9.90509C8.08718 10.055 8.02237 10.13 7.95511 10.1722C7.78453 10.2792 7.57138 10.2803 7.3997 10.1751C7.33199 10.1336 7.26707 10.0601 7.13722 9.9131L5.82103 8.42286C4.6201 7.06314 2.46608 7.21366 1.46339 8.72737C0.76171 9.78665 0.865691 11.1905 1.71567 12.1334L3.7796 14.4229C5.32334 16.1353 6.09521 16.9916 7.02185 16.9999C7.94849 17.0083 8.79043 16.1075 10.4743 14.3058Z" stroke="black" stroke-width="1.5"/>
</svg>
